<svg xmlns="http://www.w3.org/2000/svg" viewBox="0 0 96 96">
  <defs>
    <linearGradient id="a" x1="58.97" x2="37.05" y1="9.46" y2="87.38" gradientUnits="userSpaceOnUse">
      <stop offset="0" stop-color="#114a8b"/>
      <stop offset="1" stop-color="#0669bc"/>
    </linearGradient>
    <linearGradient id="b" x1="60.08" x2="53.42" y1="32.34" y2="34.77" gradientUnits="userSpaceOnUse">
      <stop offset="0" stop-opacity=".3"/>
      <stop offset=".07" stop-opacity=".2"/>
      <stop offset=".32" stop-opacity=".1"/>
      <stop offset=".62" stop-opacity=".05"/>
      <stop offset="1" stop-opacity="0"/>
    </linearGradient>
    <linearGradient id="c" x1="50.12" x2="74.46" y1="6.32" y2="90.55" gradientUnits="userSpaceOnUse">
      <stop offset="0" stop-color="#3ccbf4"/>
      <stop offset="1" stop-color="#2892df"/>
    </linearGradient>
  </defs>
  <path fill="url(#a)" d="M33.34 8.42h23.19L32.86 83.53a5.42 5.42 0 0 1-5.14 3.71H10.66a5.42 5.42 0 0 1-5.13-7.12L28.2 12.13a5.42 5.42 0 0 1 5.14-3.71Z"/>
  <path fill="#0078d4" d="M71.17 60.26H29.89a2.43 2.43 0 0 0-1.67 4.21l26.5 24.88a5.47 5.47 0 0 0 3.73 1.47h22.5Z"/>
  <path fill="url(#b)" d="M33.34 8.42a5.38 5.38 0 0 0-5.11 3.77L5.59 79.93a5.42 5.42 0 0 0 5.07 7.31h17.4a5.68 5.68 0 0 0 4.82-3.54l4.65-12.86 16.72 15.64a5.54 5.54 0 0 0 3.51 1.26h22.34L66.9 60.26H37.34l19.2-51.84Z"/>
  <path fill="url(#c)" d="M67.75 12.13a5.42 5.42 0 0 0-5.14-3.71H34.02a5.42 5.42 0 0 1 5.14 3.71l22.67 67.98a5.42 5.42 0 0 1-5.14 7.13h28.59a5.42 5.42 0 0 0 5.14-7.13Z"/>
</svg>
